<?xml version="1.0" encoding="UTF-8" standalone="no"?>
<!DOCTYPE svg PUBLIC "-//W3C//DTD SVG 1.1//EN" "http://www.w3.org/Graphics/SVG/1.1/DTD/svg11.dtd">
<svg width="100%" height="100%" viewBox="0 0 256 256" version="1.1" xmlns="http://www.w3.org/2000/svg" xmlns:xlink="http://www.w3.org/1999/xlink" xml:space="preserve" xmlns:serif="http://www.serif.com/" style="fill-rule:evenodd;clip-rule:evenodd;stroke-linecap:round;stroke-linejoin:round;stroke-miterlimit:1.5;">
    <g transform="matrix(1.16579,0,0,1.16579,-1.09165,-36.4579)">
        <rect x="43.135" y="73.472" width="135.197" height="135.197" style="fill:none;stroke:white;stroke-width:15.59px;"/>
    </g>
    <g transform="matrix(1,0,0,0.830529,-0.813215,7.92743)">
        <path d="M97.01,60.213L97.01,81.807" style="fill:none;stroke:white;stroke-width:14.09px;"/>
    </g>
    <g transform="matrix(4.97022e-17,1,-0.811699,6.12323e-17,187.021,1.42694)">
        <path d="M97.01,60.213L97.01,81.807" style="fill:none;stroke:white;stroke-width:14.22px;"/>
    </g>
    <g transform="matrix(1,0,0,-1.8756,-0.813215,318.108)">
        <path d="M97.01,60.213L97.01,81.807" style="fill:none;stroke:white;stroke-width:8.62px;"/>
    </g>
    <g transform="matrix(5.89263e-17,-1,-0.96234,-6.12323e-17,174.923,261.681)">
        <path d="M97.01,60.213L97.01,81.807" style="fill:none;stroke:white;stroke-width:13.2px;"/>
    </g>
    <g transform="matrix(1,0,0,1,1.01652,-2.277)">
        <circle cx="95.181" cy="100.714" r="18.907" style="fill:none;stroke:white;stroke-width:12.08px;"/>
    </g>
    <g transform="matrix(1,0,0,1,65.939,-2.277)">
        <circle cx="95.181" cy="100.714" r="18.907" style="fill:none;stroke:white;stroke-width:12.08px;"/>
    </g>
    <g transform="matrix(1,0,0,1,45.9899,63.9567)">
        <circle cx="95.181" cy="100.714" r="18.907" style="fill:none;stroke:white;stroke-width:12.08px;"/>
    </g>
</svg>
