<?xml version="1.0" encoding="UTF-8" standalone="no"?>
<!DOCTYPE svg PUBLIC "-//W3C//DTD SVG 1.1//EN" "http://www.w3.org/Graphics/SVG/1.1/DTD/svg11.dtd">
<svg width="100%" height="100%" viewBox="0 0 256 256" version="1.1" xmlns="http://www.w3.org/2000/svg" xmlns:xlink="http://www.w3.org/1999/xlink" xml:space="preserve" xmlns:serif="http://www.serif.com/" style="fill-rule:evenodd;clip-rule:evenodd;stroke-linecap:round;stroke-linejoin:round;stroke-miterlimit:1.5;">
    <g transform="matrix(1.11912,0,0,1.11912,128,138.775)">
        <g id="LinkedIn.svg" transform="matrix(1,0,0,1,-128,-128)">
            <g>
                <g transform="matrix(1,0,0,1,-8.0305,6.50572)">
                    <rect x="60.666" y="88.803" width="17.24" height="106.368" style="fill:none;stroke:white;stroke-width:18.2px;"/>
                </g>
                <g transform="matrix(1,0,0,1.05136,59.3037,-3.51764)">
                    <path d="M77.906,93.906C77.906,92.553 77.341,91.255 76.335,90.298C75.328,89.341 73.964,88.803 72.541,88.803C70.469,88.803 68.103,88.803 66.031,88.803C64.608,88.803 63.244,89.341 62.237,90.298C61.231,91.255 60.666,92.553 60.666,93.906C60.666,115.112 60.666,195.171 60.666,195.171L77.906,195.171L77.906,93.906Z" style="fill:none;stroke:white;stroke-width:18.2px;"/>
                </g>
                <g transform="matrix(0.826112,0,0,0.800759,144.343,45.392)">
                    <rect x="60.666" y="88.803" width="17.24" height="106.368" style="fill:none;stroke:white;stroke-width:20.54px;"/>
                </g>
                <g transform="matrix(1,0,0,1,-8.0305,6.50572)">
                    <path d="M145.24,107.995C145.24,107.995 178.69,83.755 210.799,111.949C210.997,112.122 211.112,112.372 211.115,112.635C211.177,118.923 211.924,195.172 211.924,195.172L219.731,195.172C219.731,195.172 219.731,141.776 219.731,119.271C219.731,110.659 215.728,102.537 208.899,97.29C203.28,93.012 195.348,89.158 184.79,88.803C173.989,88.44 165.011,97.219 145.24,103.701" style="fill:none;stroke:white;stroke-width:18.2px;"/>
                </g>
                <g transform="matrix(1,0,0,1,-25.8187,-14.2683)">
                    <circle cx="86.241" cy="67.375" r="16.956" style="fill:white;stroke:white;stroke-width:5.38px;"/>
                </g>
                <g transform="matrix(1,0,0,1,7.46127,-1.42109e-14)">
                    <path d="M135.289,128C135.289,128 135.156,111.804 156.74,109.939" style="fill:none;stroke:white;stroke-width:5.38px;"/>
                </g>
                <g transform="matrix(-1,0,0,1,324.911,-1.42109e-14)">
                    <path d="M135.289,128C135.289,128 135.156,111.804 156.74,109.939" style="fill:none;stroke:white;stroke-width:5.38px;"/>
                </g>
            </g>
        </g>
        <g id="LinkedIn.svg1" serif:id="LinkedIn.svg">
        </g>
    </g>
</svg>
