<?xml version="1.0" encoding="UTF-8" standalone="no"?>
<!DOCTYPE svg PUBLIC "-//W3C//DTD SVG 1.1//EN" "http://www.w3.org/Graphics/SVG/1.1/DTD/svg11.dtd">
<svg width="100%" height="100%" viewBox="0 0 256 256" version="1.1" xmlns="http://www.w3.org/2000/svg" xmlns:xlink="http://www.w3.org/1999/xlink" xml:space="preserve" xmlns:serif="http://www.serif.com/" style="fill-rule:evenodd;clip-rule:evenodd;stroke-linejoin:round;stroke-miterlimit:2;">
    <g transform="matrix(1.2523,0,0,1.2523,-24.9618,-52.8656)">
        <path d="M37.583,227.375C37.583,230.062 39.762,232.241 42.45,232.241L201.84,232.241C204.528,232.241 206.706,230.062 206.706,227.375L206.706,129.626C206.706,126.939 204.528,124.76 201.84,124.76L127.576,124.76C127.576,124.76 97.611,94.795 97.611,94.795C96.699,93.883 95.461,93.37 94.17,93.37L42.45,93.37C39.762,93.37 37.583,95.549 37.583,98.236L37.583,227.375ZM47.316,222.509L47.316,103.103C47.316,103.103 92.155,103.103 92.155,103.103C92.155,103.103 122.119,133.067 122.119,133.067C123.032,133.98 124.27,134.493 125.56,134.493L196.974,134.493C196.974,134.493 196.974,222.509 196.974,222.509L47.316,222.509Z" style="fill:white;"/>
    </g>
    <g transform="matrix(1.2523,0,0,1.2523,-45.6554,-55.4726)">
        <path d="M150.204,113.44L118.814,82.066L82.457,82.066L82.457,63.561L194.184,63.561L194.184,113.44L150.204,113.44Z" style="fill:white;"/>
    </g>
    <g transform="matrix(1.2523,0,0,1.2523,-45.6554,-55.4726)">
        <path d="M146.764,116.882C147.676,117.794 148.914,118.307 150.204,118.307L194.184,118.307C196.872,118.307 199.05,116.128 199.05,113.44L199.05,63.561C199.05,60.873 196.872,58.695 194.184,58.695L82.457,58.695C79.77,58.695 77.591,60.873 77.591,63.561L77.591,82.066C77.591,84.754 79.77,86.933 82.457,86.933L116.799,86.933C116.799,86.933 146.764,116.882 146.764,116.882ZM152.219,108.574L122.254,78.624C121.342,77.712 120.104,77.2 118.814,77.2L87.324,77.2C87.324,77.2 87.324,68.427 87.324,68.427C87.324,68.427 189.318,68.427 189.318,68.427C189.318,68.427 189.318,108.574 189.318,108.574L152.219,108.574Z" style="fill:white;"/>
    </g>
    <g transform="matrix(1.2523,0,0,1.2523,-37.1824,-51.2362)">
        <path d="M52.208,226.074L52.208,96.935L103.929,96.935L135.319,128.325L211.598,128.325L211.598,226.074L52.208,226.074ZM59.484,204.973C59.484,184.155 93.742,184.363 93.742,184.363C93.742,184.363 128,184.155 128,204.973L59.484,204.973ZM93.742,126.238C108.177,126.238 119.896,137.958 119.896,152.393C119.896,166.827 108.177,178.547 93.742,178.547C79.307,178.547 67.588,166.827 67.588,152.393C67.588,137.958 79.307,126.238 93.742,126.238Z" style="fill:white;"/>
    </g>
</svg>
